PathFileType	4	(X/Y/Z)	Walk4.trc
DataRate	CameraRate	NumFrames	NumMarkers	Units	OrigDataRate	OrigDataStartFrame	OrigNumFrames
200.000000	200.000000	4	69	mm	200.000000	930	1013
Frame#	Times		LFHD		LowerBodyModelVer		RCAR		RFHD		RWRU		RACR1		RFA1		RASI		LElbow		LTH3		LTB1		RUA1		LMT1		LACR1		LLFC		LMT5		LTH4		LTH2		LUA1		RTH2		LTB3		LTB2		LTB4		LToe		STRN		RBHD		CLAV		RTH4		RLFC		LLMAL		LASI		PELOrigin		RTH3		LWRU		RBack		LTH1		LFA1		C7		RPSI		LBHD		RMT1		RCAL		RMT5		LPSI		RTH1		RTB2		RToe		LHJC		MidPelvis		OPelvis		RHJC		SACR		XPelvis		YPelvis		ZPelvis		LCAR		RLMAL		LWRR		RWRR		RElbow		RTB1		RTB3		RTB4		RMMAL		LMMAL		T10		RElbowM		LCAL		LElbowM
			X1	Y1	Z1	X2	Y2	Z2	X3	Y3	Z3	X4	Y4	Z4	X5	Y5	Z5	X6	Y6	Z6	X7	Y7	Z7	X8	Y8	Z8	X9	Y9	Z9	X10	Y10	Z10	X11	Y11	Z11	X12	Y12	Z12	X13	Y13	Z13	X14	Y14	Z14	X15	Y15	Z15	X16	Y16	Z16	X17	Y17	Z17	X18	Y18	Z18	X19	Y19	Z19	X20	Y20	Z20	X21	Y21	Z21	X22	Y22	Z22	X23	Y23	Z23	X24	Y24	Z24	X25	Y25	Z25	X26	Y26	Z26	X27	Y27	Z27	X28	Y28	Z28	X29	Y29	Z29	X30	Y30	Z30	X31	Y31	Z31	X32	Y32	Z32	X33	Y33	Z33	X34	Y34	Z34	X35	Y35	Z35	X36	Y36	Z36	X37	Y37	Z37	X38	Y38	Z38	X39	Y39	Z39	X40	Y40	Z40	X41	Y41	Z41	X42	Y42	Z42	X43	Y43	Z43	X44	Y44	Z44	X45	Y45	Z45	X46	Y46	Z46	X47	Y47	Z47	X48	Y48	Z48	X49	Y49	Z49	X50	Y50	Z50	X51	Y51	Z51	X52	Y52	Z52	X53	Y53	Z53	X54	Y54	Z54	X55	Y55	Z55	X56	Y56	Z56	X57	Y57	Z57	X58	Y58	Z58	X59	Y59	Z59	X60	Y60	Z60	X61	Y61	Z61	X62	Y62	Z62	X63	Y63	Z63	X64	Y64	Z64	X65	Y65	Z65	X66	Y66	Z66	X67	Y67	Z67	X68	Y68	Z68	X69	Y69	Z69

930	4.65	717.48	1569.9	5.037	9	2014	4	641.29	791.84	400.8	718.77	1567.6	103.11	591.8	837.92	407.91	591.93	1364.6	222.33	597.94	945.52	378.35	676.24	944.34	216.82	494.92	1068.6	-241.32	710.99	560.96	-128.38	754.04	338.52	-4.9063	556.78	1223.1	312.57	843.72	36.439	3.5048	602.69	1348.6	-138.6	713.67	488.6	-107.47	826.35	26.714	-86.696	698.97	644.2	-155.97	748.15	659.98	-124.22	569.56	1202.7	-212.58	626.78	613.6	237.62	747.13	167.56	-14.004	748.65	257.48	-72.902	747.13	253.43	-10.886	885.33	32.119	3.5463	737.02	1213.7	53.787	548.62	1559.3	114.09	670.73	1330.7	45.177	569.94	621.59	251.93	535.67	448.67	230.77	708.68	69.72	-77.719	691.52	956.15	-130.08	683.88	950.24	43.371	554.21	537.47	238.74	451.04	834.02	-306.11	453.14	1300.5	147.82	689.55	725.34	-181.16	512.47	937.25	-277.44	508.92	1404.3	52.813	428.76	967.55	67.86	565.53	1551.6	-20.463	366.61	43.207	120.51	223.57	146.22	166.79	348.17	30.501	206.48	450.79	970.2	-65.42	596.2	701.38	265.03	448.06	283.43	221.18	403.36	27.322	124.29	601.14	849.15	-82.03	561.83	959.56	22.295	683.88	950.24	43.371	590.74	841.12	153.87	439.78	968.87	1.2198	763.61	944.55	46.69	689.45	1030	46.331	680.36	947.52	123.25	469.89	776.33	-308.14	284.66	139.8	212.83	500.57	814.05	-254.6	638.72	846.11	351.04	518.16	1063.8	357.74	524.29	324.87	158.28	384.42	205.01	139.86	454.35	264.94	149.07	309.1	140.48	129.94	717.88	72.603	5.9906	460.59	1073	30.064	487.07	1041.1	272.8	654.31	29.365	-37.971	494.16	1030.6	-138.36
931	4.655	722.22	1570.6	3.7234	9	2014	4	642.12	791.59	398.63	723.36	1568.3	101.79	593.07	838.17	405.79	596.36	1365.6	220.9	600.13	945.79	376.29	681.22	945.88	215.34	500.96	1068.9	-242.5	713.68	561.27	-129.52	755.71	338.44	-5.7932	560.52	1224.2	311.09	843.69	36.433	3.4564	607.4	1349.4	-139.86	715.89	488.67	-108.36	826.39	26.697	-86.864	701.95	644.52	-157.19	751.45	660.12	-125.77	575.14	1203.3	-213.7	633.86	614.57	238.03	747.6	167.53	-14.277	749.69	257.26	-73.523	748.16	253.41	-11.472	885.39	31.957	3.4505	741.58	1214.9	52.067	553.18	1560.2	112.53	675.23	1331.7	43.815	576.76	622.25	252.32	544.35	449.07	231.66	708.8	69.685	-77.891	696.23	957.42	-130.98	688.73	951.65	42.181	562.05	537.75	239.26	458.55	833.93	-307.06	457.53	1301.6	146.44	692.88	725.64	-182.56	519.28	937.53	-278.27	513.44	1405.1	51.363	433.41	968.07	67.325	570.3	1552.5	-21.985	368.88	44.212	120.85	229.3	151.88	167.56	350.6	31.966	206.62	455.43	970.97	-65.913	602.17	702.27	265.03	455.29	284.93	222.06	404.79	27.269	124.69	606.34	850.39	-82.866	566.57	960.59	21.443	688.73	951.65	42.181	596.13	842.54	152.63	444.42	969.52	0.70633	768.47	946.19	45.455	694.07	1031.4	45.071	685.26	948.99	122.06	477.62	776.28	-308.78	290.09	143.68	213.52	507.91	814.35	-255.23	640.12	846	348.95	521.26	1064.8	355.66	532.13	325.27	159.18	390.7	207.37	140.67	461.41	266.32	149.93	314.55	143.88	130.71	717.87	72.724	5.6859	465.18	1073.7	29.21	490.63	1042.4	270.37	654.28	29.355	-38.093	499.84	1031.2	-139.55
932	4.66	726.95	1571.2	2.4423	9	2014	4	642.94	791.33	396.39	727.95	1569	100.51	594.34	838.44	403.67	600.74	1366.6	219.5	602.33	946.07	374.23	686.15	947.44	213.97	507.01	1069.2	-243.7	716.35	561.57	-130.52	757.24	338.36	-6.6576	564.29	1225.2	309.64	843.65	36.457	3.4045	612.09	1350.2	-141.09	717.85	488.73	-109.24	826.41	26.687	-87.012	704.83	644.8	-158.34	754.65	660.28	-127.31	580.74	1203.9	-214.82	640.95	615.57	238.45	748.02	167.5	-14.555	750.62	257.05	-74.135	749.09	253.39	-12.053	885.43	31.862	3.3503	746.12	1216	50.388	557.75	1561.1	111.01	679.71	1332.6	42.486	583.61	622.91	252.72	553.15	449.49	232.53	708.9	69.643	-78.064	700.9	958.71	-131.85	693.53	953.08	41.059	569.94	538.04	239.79	466.2	833.85	-308.03	461.89	1302.6	145.06	696.04	725.87	-183.96	526.16	937.84	-279.11	517.91	1405.9	49.919	438.03	968.59	66.82	575.05	1553.3	-23.469	371.62	45.351	121.27	235.31	157.39	168.26	353.48	33.657	206.84	460.03	971.76	-66.375	608.14	703.16	265.06	462.68	286.45	222.87	406.7	27.25	125.23	611.47	851.62	-83.664	571.28	961.63	20.641	693.53	953.08	41.059	601.44	843.96	151.49	449.03	970.18	0.22255	773.29	947.85	44.292	698.64	1032.9	43.877	690.12	950.47	120.94	485.53	776.26	-309.43	295.79	147.55	214.13	515.51	814.73	-255.91	641.49	845.9	346.82	524.38	1065.7	353.61	540.12	325.72	160.08	397.2	209.73	141.42	468.66	267.72	150.75	320.25	147.27	131.38	717.85	72.849	5.3961	469.74	1074.4	28.383	494.18	1043.7	267.98	654.23	29.335	-38.205	505.49	1031.8	-140.75
933	4.665	731.68	1571.8	1.1946	9	2014	4	643.75	791.06	394.1	732.54	1569.6	99.267	595.64	838.72	401.56	605.05	1367.6	218.11	604.53	946.34	372.17	691.01	949	212.71	513.07	1069.5	-244.91	718.98	561.87	-131.39	758.62	338.28	-7.4775	568.05	1226.3	308.22	843.6	36.498	3.3521	616.75	1351.1	-142.3	719.59	488.77	-110.12	826.42	26.682	-87.141	707.61	645.03	-159.42	757.75	660.43	-128.81	586.34	1204.5	-215.94	648.04	616.61	238.88	748.39	167.47	-14.829	751.44	256.85	-74.726	749.92	253.37	-12.614	885.46	31.817	3.2494	750.65	1217.2	48.754	562.31	1562.1	109.53	684.17	1333.6	41.191	590.47	623.55	253.14	562.04	449.93	233.38	708.97	69.595	-78.233	705.54	959.99	-132.69	698.27	954.5	40.009	577.89	538.35	240.32	473.98	833.77	-309.01	466.23	1303.7	143.66	699.04	726.03	-185.34	533.11	938.18	-279.96	522.34	1406.7	48.482	442.63	969.13	66.338	579.8	1554.2	-24.914	374.9	46.619	121.79	241.57	162.72	168.84	356.82	35.566	207.15	464.59	972.56	-66.811	614.09	704.07	265.12	470.23	288	223.6	409.14	27.278	125.93	616.55	852.82	-84.427	575.94	962.67	19.886	698.27	954.5	40.009	606.66	845.35	150.44	453.61	970.85	-0.23649	778.05	949.5	43.207	703.16	1034.3	42.753	694.91	951.95	119.9	493.61	776.25	-310.1	301.75	151.4	214.63	523.36	815.18	-256.65	642.84	845.8	344.64	527.5	1066.6	351.58	548.25	326.24	160.94	403.91	212.08	142.09	476.08	269.16	151.52	326.19	150.61	131.95	717.82	72.972	5.1249	474.28	1075.1	27.583	497.71	1044.9	265.63	654.19	29.308	-38.307	511.11	1032.4	-141.97
